#!OML:ASF E:\pregnant2\Project 1\Capture day 1\Session 1\pregnant2.ASF
:FULLY-SPECIFIED
:DEGREES
1958
root 3.86127 17.0212 -21.4361 -149.325 20.1835 538.332
lowerback -18.4637 -8.20722 -3.76975
upperback -16.3856 -6.88202 9.71922
thorax -6.02998 -1.0958 11.7582
lowerneck -10.446 -4.93729 -7.32784
upperneck 50.1743 8.709 -8.76964
head 24.6072 3.5559 -0.48416
rclavicle 4.37326e-014 -4.77083e-015
rhumerus -47.7 11.0818 -65.9424
rradius 39.2501
rwrist 4.39901
rhand -7.19189 -11.8597
rfingers 7.12502
rthumb 18.6863 -40.9822
lclavicle 4.37326e-014 -4.77083e-015
lhumerus -50.324 23.2709 81.199
lradius 32.0695
lwrist -4.59132
lhand -8.33034 31.5985
lfingers 7.12502
lthumb 17.591 60.8227
rfemur -54.8309 -0.00429781 31.1091
rtibia 35.2733
rfoot -12.4087 -12.5567
rtoes 14.5914
lfemur -48.4835 7.64771 -28.4036
ltibia 66.1899
lfoot -6.10664 3.74696
ltoes -27.547
1959
root 3.87529 17.0171 -21.5163 -149.323 20.8448 538.352
lowerback -18.5284 -8.12986 -3.62776
upperback -16.391 -6.8094 9.64903
thorax -6.04278 -1.08231 11.6033
lowerneck -10.3873 -4.88535 -7.25058
upperneck 50.1965 8.74553 -8.79118
head 24.6116 3.57581 -0.509727
rclavicle -1.59028e-014 -7.63333e-014
rhumerus -47.7598 11.5408 -66.4858
rradius 39.7928
rwrist 4.31596
rhand -7.14352 -11.6374
rfingers 7.12502
rthumb 18.7328 -40.7554
lclavicle -1.59028e-014 -7.63333e-014
lhumerus -50.5261 23.2077 81.0628
lradius 32.1479
lwrist -4.43521
lhand -8.69083 31.6711
lfingers 7.12502
lthumb 17.244 60.926
rfemur -54.6668 0.288037 30.8957
rtibia 35.564
rfoot -12.6914 -12.3172
rtoes 14.2684
lfemur -49.2096 7.32956 -28.1505
ltibia 66.8387
lfoot -6.27539 4.32669
ltoes -27.3739
1960
root 3.88863 17.0129 -21.5961 -149.344 21.5294 538.339
lowerback -18.5951 -8.05585 -3.5207
upperback -16.3866 -6.7435 9.56477
thorax -6.03875 -1.07372 11.4505
lowerneck -10.3408 -4.83025 -7.16305
upperneck 50.2173 8.77272 -8.80175
head 24.6168 3.59311 -0.533554
rclavicle 2.8625e-014 -5.725e-014
rhumerus -47.8406 12.0346 -67.0594
rradius 40.386
rwrist 4.15326
rhand -7.18112 -11.536
rfingers 7.12502
rthumb 18.6966 -40.6575
lclavicle 2.8625e-014 -5.725e-014
lhumerus -50.7165 23.1566 80.9058
lradius 32.2123
lwrist -4.31178
lhand -9.06876 31.7426
lfingers 7.12502
lthumb 16.8802 61.029
rfemur -54.5092 0.579967 30.6358
rtibia 35.8762
rfoot -12.9776 -12.0862
rtoes 13.9673
lfemur -49.891 6.94852 -27.8784
ltibia 67.3336
lfoot -6.55552 4.56406
ltoes -27.268
1961
root 3.90142 17.0088 -21.6759 -149.38 22.246 538.304
lowerback -18.6659 -7.98365 -3.4436
upperback -16.3776 -6.67965 9.47537
thorax -6.02378 -1.06571 11.3086
lowerneck -10.3015 -4.77804 -7.07161
upperneck 50.2397 8.80056 -8.82255
head 24.6298 3.60999 -0.564098
rclavicle 1.29608e-013 -1.79701e-013
rhumerus -47.8838 12.4747 -67.5949
rradius 40.9193
rwrist 4.01792
rhand -7.28557 -11.4727
rfingers 7.12502
rthumb 18.5962 -40.6038
lclavicle 1.29608e-013 -1.79701e-013
lhumerus -50.9071 23.1248 80.7315
lradius 32.2556
lwrist -4.23546
lhand -9.45425 31.8072
lfingers 7.12502
lthumb 16.5091 61.1249
rfemur -54.3535 0.87469 30.3429
rtibia 36.1994
rfoot -13.2602 -11.8452
rtoes 13.687
lfemur -50.5291 6.51515 -27.5826
ltibia 67.6783
lfoot -6.94587 4.51258
ltoes -27.1953
1962
root 3.91357 17.0056 -21.7557 -149.432 22.9828 538.263
lowerback -18.7416 -7.90629 -3.36729
upperback -16.3587 -6.61283 9.37798
thorax -5.99571 -1.05911 11.1575
lowerneck -10.2663 -4.72514 -6.96975
upperneck 50.2561 8.8214 -8.84707
head 24.6378 3.62471 -0.600791
rclavicle 5.00937e-014 -2.54444e-014
rhumerus -47.8986 12.8412 -68.0925
rradius 41.4101
rwrist 3.92383
rhand -7.47499 -11.4523
rfingers 7.12502
rthumb 18.4139 -40.6008
lclavicle 5.00937e-014 -2.54444e-014
lhumerus -51.0789 23.0974 80.5437
lradius 32.2673
lwrist -4.20236
lhand -9.83407 31.8476
lfingers 7.12502
lthumb 16.1434 61.1953
rfemur -54.1884 1.14992 30.0508
rtibia 36.5242
rfoot -13.5505 -11.5687
rtoes 13.4793
lfemur -51.1239 6.02797 -27.2434
ltibia 67.8826
lfoot -7.41371 4.27057
ltoes -27.1425
1963
root 3.92526 17.0025 -21.8354 -149.494 23.7474 538.22
lowerback -18.8271 -7.82189 -3.29369
upperback -16.3298 -6.53968 9.27362
thorax -5.95242 -1.05174 11.0001
lowerneck -10.2373 -4.67269 -6.8661
upperneck 50.2683 8.83091 -8.86551
head 24.6414 3.63444 -0.637286
rclavicle -5.76476e-014 1.27222e-013
rhumerus -47.9063 13.1809 -68.5809
rradius 41.9025
rwrist 3.80934
rhand -7.71528 -11.4742
rfingers 7.12502
rthumb 18.1828 -40.6444
lclavicle -5.76476e-014 1.27222e-013
lhumerus -51.2257 23.0629 80.3545
lradius 32.2463
lwrist -4.1994
lhand -10.2031 31.8635
lfingers 7.12502
lthumb 15.788 61.2396
rfemur -54.0173 1.41119 29.7614
rtibia 36.8462
rfoot -13.8456 -11.2483
rtoes 13.3297
lfemur -51.6868 5.4999 -26.8685
ltibia 67.9626
lfoot -7.91238 3.93929
ltoes -27.099
1964
root 3.93645 16.999 -21.9151 -149.557 24.5377 538.186
lowerback -18.9179 -7.73034 -3.21111
upperback -16.2979 -6.45867 9.16828
thorax -5.90527 -1.04154 10.8376
lowerneck -10.2148 -4.62063 -6.77197
upperneck 50.2835 8.83142 -8.86674
head 24.6465 3.63918 -0.664305
rclavicle 7.51406e-014 -6.36111e-014
rhumerus -47.916 13.4926 -69.0563
rradius 42.3961
rwrist 3.71007
rhand -8.0308 -11.5032
rfingers 7.12502
rthumb 17.8792 -40.7013
lclavicle 7.51406e-014 -6.36111e-014
lhumerus -51.3584 23.021 80.1652
lradius 32.1988
lwrist -4.21652
lhand -10.5379 31.8548
lfingers 7.12502
lthumb 15.4656 61.2561
rfemur -53.8446 1.65508 29.4914
rtibia 37.1631
rfoot -14.1479 -10.8706
rtoes 13.2361
lfemur -52.2282 4.94636 -26.4557
ltibia 67.938
lfoot -8.4282 3.62926
ltoes -27.0583
1965
root 3.94706 16.9949 -21.9949 -149.621 25.3477 538.162
lowerback -19.0177 -7.62979 -3.11413
upperback -16.2564 -6.3702 9.05748
thorax -5.84548 -1.03087 10.661
lowerneck -10.1991 -4.56028 -6.6745
upperneck 50.2892 8.81604 -8.84103
head 24.6355 3.63816 -0.680466
rclavicle 1.36764e-013 -1.17681e-013
rhumerus -47.9827 13.8531 -69.5711
rradius 42.9947
rwrist 3.51736
rhand -8.40636 -11.604
rfingers 7.12502
rthumb 17.5178 -40.8347
lclavicle 1.36764e-013 -1.17681e-013
lhumerus -51.4645 22.9688 79.9755
lradius 32.1359
lwrist -4.25598
lhand -10.8117 31.8385
lfingers 7.12502
lthumb 15.2019 61.26
rfemur -53.6675 1.88117 29.2404
rtibia 37.4722
rfoot -14.4399 -10.4519
rtoes 13.1134
lfemur -52.7556 4.37109 -26.0038
ltibia 67.8287
lfoot -8.95093 3.41326
ltoes -26.99
1966
root 3.95723 16.99 -22.0742 -149.672 26.1782 538.156
lowerback -19.1251 -7.52209 -3.00211
upperback -16.2116 -6.27442 8.94758
thorax -5.78038 -1.01786 10.4778
lowerneck -10.195 -4.49414 -6.58065
upperneck 50.2927 8.78917 -8.78756
head 24.6197 3.63216 -0.68281
rclavicle 8.26944e-014 6.36111e-015
rhumerus -48.0394 14.1802 -70.0705
rradius 43.5817
rwrist 3.31213
rhand -8.79091 -11.7013
rfingers 7.12502
rthumb 17.1477 -40.9646
lclavicle 8.26944e-014 6.36111e-015
lhumerus -51.5504 22.9034 79.7897
lradius 32.0628
lwrist -4.3054
lhand -11.0313 31.8083
lfingers 7.12502
lthumb 14.9903 61.2457
rfemur -53.4978 2.09992 29.0121
rtibia 37.7716
rfoot -14.7283 -9.99012
rtoes 12.9811
lfemur -53.2847 3.78639 -25.5123
ltibia 67.6508
lfoot -9.47427 3.34322
ltoes -26.9219
1967
root 3.96665 16.9843 -22.1529 -149.695 27.0155 538.195
lowerback -19.2276 -7.40635 -2.84912
upperback -16.1697 -6.17103 8.84805
thorax -5.72531 -1.00219 10.2852
lowerneck -10.2023 -4.42639 -6.48885
upperneck 50.2988 8.75787 -8.72159
head 24.609 3.62387 -0.678719
rclavicle -1.07344e-014 4.29375e-014
rhumerus -48.0396 14.4082 -70.5118
rradius 44.0721
rwrist 3.17204
rhand -9.1547 -11.7362
rfingers 7.12502
rthumb 16.7975 -41.0296
lclavicle -1.07344e-014 4.29375e-014
lhumerus -51.628 22.8283 79.6056
lradius 31.986
lwrist -4.36039
lhand -11.1801 31.779
lfingers 7.12502
lthumb 14.847 61.2271
rfemur -53.3316 2.30972 28.8348
rtibia 38.0567
rfoot -14.9978 -9.49131
rtoes 12.761
lfemur -53.8228 3.20035 -24.9542
ltibia 67.4149
lfoot -9.98356 3.41739
ltoes -26.8288
1968
root 3.97534 16.9779 -22.2308 -149.681 27.8796 538.257
lowerback -19.3484 -7.28077 -2.67347
upperback -16.1311 -6.05506 8.74756
thorax -5.66901 -0.980588 10.0803
lowerneck -10.2146 -4.35365 -6.39024
upperneck 50.3029 8.71629 -8.63674
head 24.593 3.61329 -0.667663
rclavicle -1.53462e-013 1.44715e-013
rhumerus -48.0496 14.6275 -70.96
rradius 44.5737
rwrist 3.00564
rhand -9.51019 -11.8057
rfingers 7.12502
rthumb 16.4553 -41.1278
lclavicle -1.53462e-013 1.44715e-013
lhumerus -51.6892 22.7212 79.4298
lradius 31.9147
lwrist -4.40127
lhand -11.2523 31.7612
lfingers 7.12502
lthumb 14.7775 61.2144
rfemur -53.1911 2.52756 28.6744
rtibia 38.3259
rfoot -15.247 -8.96224
rtoes 12.5123
lfemur -54.3832 2.61878 -24.3545
ltibia 67.1176
lfoot -10.4651 3.59701
ltoes -26.7369
